<svg width="53" height="52" viewBox="0 0 53 52" fill="none" xmlns="http://www.w3.org/2000/svg">
<path d="M34.5 35C34.5 44.3888 26.8888 52 17.5 52C8.11116 52 0.5 44.3888 0.5 35C0.5 25.6112 8.11116 18 17.5 18C26.8888 18 34.5 25.6112 34.5 35Z" fill="#848E9C"/>
<path d="M35.5 0C44.8888 0 52.5 7.61116 52.5 17C52.5 25.019 46.9474 31.7394 39.4775 33.5303C39.001 22.2934 30.2848 13.1901 19.2148 12.1084C21.3158 5.104 27.8116 0 35.5 0Z" fill="#848E9C"/>
<path d="M11 35.5V34.5L17 28.5H18L24 34.5V35.5L18 41.5H17L11 35.5Z" fill="#202630"/>
</svg>
