<?xml version="1.0" standalone="no"?>
<!DOCTYPE svg PUBLIC "-//W3C//DTD SVG 20010904//EN"
 "http://www.w3.org/TR/2001/REC-SVG-20010904/DTD/svg10.dtd">
<svg version="1.0" xmlns="http://www.w3.org/2000/svg"
 width="1024.000000pt" height="512.000000pt" viewBox="0 0 1024.000000 512.000000"
 preserveAspectRatio="xMidYMid meet">

<g transform="translate(0.000000,512.000000) scale(0.100000,-0.100000)"
fill="#000000" stroke="none">
<path d="M687 3142 c-169 -169 -307 -312 -307 -317 0 -13 212 -225 225 -225 6
0 98 88 205 195 l195 195 195 -195 c107 -107 200 -195 205 -195 13 0 225 213
225 225 0 13 -612 625 -625 625 -6 0 -148 -138 -318 -308z"/>
<path d="M8595 2974 c-135 -21 -275 -104 -355 -210 -135 -180 -155 -407 -54
-613 133 -269 492 -379 774 -236 52 26 160 114 160 130 0 6 -33 43 -73 83
l-72 72 -60 -45 c-77 -57 -130 -75 -225 -75 -66 0 -86 4 -139 31 -111 55 -174
168 -173 309 0 300 317 441 551 245 17 -15 35 -25 40 -23 5 1 41 40 80 85 l70
81 -44 40 c-85 79 -200 121 -350 126 -55 3 -113 2 -130 0z"/>
<path d="M5906 2962 c-2 -4 -91 -210 -196 -457 -106 -248 -207 -486 -226 -529
-19 -44 -34 -85 -34 -93 0 -10 27 -13 118 -13 l118 0 49 120 49 120 231 0 231
0 49 -120 49 -120 123 0 c68 0 123 4 123 8 0 5 -15 44 -34 88 -19 43 -123 287
-231 542 l-197 462 -108 0 c-60 0 -111 -3 -114 -8z m184 -467 c33 -81 60 -152
60 -156 0 -5 -61 -9 -135 -9 -74 0 -135 4 -135 9 0 4 27 75 61 157 34 82 64
155 67 163 7 18 9 13 82 -164z"/>
<path d="M2390 2416 l0 -546 290 0 c307 0 401 10 481 50 101 52 152 138 152
254 0 114 -50 196 -149 244 -19 8 -34 19 -34 23 0 3 15 18 34 33 85 64 113
218 60 324 -31 62 -80 105 -154 134 -52 21 -74 23 -367 26 l-313 4 0 -546z
m534 324 c59 -13 91 -51 91 -104 0 -90 -59 -116 -259 -116 l-126 0 0 115 0
115 128 0 c70 0 145 -5 166 -10z m93 -443 c35 -19 63 -63 63 -99 0 -13 -9 -37
-20 -55 -29 -49 -91 -63 -277 -63 l-153 0 0 121 0 121 178 -4 c146 -2 183 -6
209 -21z"/>
<path d="M3612 2418 l3 -543 120 0 120 0 0 540 0 540 -123 3 -122 3 2 -543z"/>
<path d="M4220 2415 l0 -545 115 0 115 0 0 340 c0 187 3 340 8 340 4 -1 122
-153 263 -338 l255 -337 102 -3 102 -3 0 546 0 545 -115 0 -115 0 0 -325 c0
-179 -4 -325 -8 -325 -5 0 -120 146 -256 325 l-248 325 -109 0 -109 0 0 -545z"/>
<path d="M6850 2415 l0 -545 120 0 120 0 2 342 3 343 80 -105 c44 -58 161
-212 260 -343 l180 -237 103 0 102 0 0 545 0 545 -120 0 -120 0 0 -327 -1
-328 -30 35 c-16 19 -130 167 -252 327 l-222 293 -112 0 -113 0 0 -545z"/>
<path d="M9410 2415 l0 -545 410 0 411 0 -3 108 -3 107 -287 3 -288 2 0 110 0
110 255 0 256 0 -3 108 -3 107 -252 3 -253 2 0 105 0 105 288 2 287 3 3 108 3
107 -411 0 -410 0 0 -545z"/>
<path d="M102 2557 c-75 -75 -102 -109 -102 -127 0 -19 28 -53 105 -130 l105
-105 117 118 118 117 -115 115 c-63 63 -117 115 -120 115 -3 0 -51 -46 -108
-103z"/>
<path d="M880 2545 l-115 -115 115 -115 c63 -63 119 -115 124 -115 5 0 61 52
124 116 l116 115 -115 115 c-62 62 -118 114 -124 114 -6 0 -62 -52 -125 -115z"/>
<path d="M1680 2545 l-115 -115 117 -117 117 -117 118 117 117 117 -114 115
c-63 63 -117 115 -120 115 -3 0 -57 -52 -120 -115z"/>
<path d="M487 2152 c-59 -59 -107 -112 -107 -117 0 -11 611 -625 622 -625 11
0 628 616 628 627 0 12 -213 223 -225 223 -6 0 -96 -85 -200 -190 -104 -104
-194 -190 -200 -190 -6 0 -96 86 -200 190 -104 105 -194 190 -200 190 -6 0
-59 -48 -118 -108z"/>
</g>
</svg>
