<svg viewBox="0 0 52 52" fill="none" xmlns="http://www.w3.org/2000/svg">
	<path
		d="M34 35C34 44.3888 26.3888 52 17 52C7.61116 52 0 44.3888 0 35C0 25.6112 7.61116 18 17 18C26.3888 18 34 25.6112 34 35Z"
		fill="#848E9C" />
	<path
		d="M35 0C44.3888 0 52 7.61116 52 17C52 25.019 46.4474 31.7394 38.9775 33.5303C38.501 22.2934 29.7848 13.1901 18.7148 12.1084C20.8158 5.104 27.3116 0 35 0Z"
		fill="#848E9C" />
	<path d="M10.5 35.5V34.5L16.5 28.5H17.5L23.5 34.5V35.5L17.5 41.5H16.5L10.5 35.5Z" fill="#202630" />
</svg>