<svg viewBox="0 0 18 14" fill="none" xmlns="http://www.w3.org/2000/svg">
	<path fill-rule="evenodd" clip-rule="evenodd"
		d="M9.43654 3.30216C11.9236 3.30226 14.3157 4.22435 16.1182 5.87783C16.2539 6.00548 16.4709 6.00387 16.6045 5.87422L17.902 4.61075C17.9697 4.54499 18.0075 4.45591 18.0069 4.36323C18.0063 4.27055 17.9675 4.18191 17.899 4.11691C13.168 -0.257802 5.7043 -0.257802 0.97329 4.11691C0.904758 4.18186 0.865874 4.27047 0.865242 4.36316C0.86461 4.45584 0.902283 4.54494 0.969923 4.61075L2.26779 5.87422C2.40139 6.00407 2.61851 6.00568 2.75416 5.87783C4.5569 4.22424 6.94918 3.30215 9.43654 3.30216ZM9.43318 7.52243C10.7905 7.52235 12.0994 8.03409 13.1055 8.95822C13.2416 9.08937 13.4559 9.08653 13.5886 8.95181L14.8759 7.6325C14.9437 7.5633 14.9813 7.46942 14.9803 7.37187C14.9793 7.27432 14.9398 7.18124 14.8707 7.11345C11.8068 4.2226 7.06211 4.2226 3.99828 7.11345C3.92907 7.18124 3.88959 7.27437 3.88868 7.37195C3.88777 7.46953 3.92552 7.5634 3.99345 7.6325L5.28036 8.95181C5.41302 9.08653 5.62738 9.08937 5.76346 8.95822C6.76892 8.0347 8.07676 7.523 9.43318 7.52243ZM11.9576 10.316C11.9595 10.4213 11.9225 10.5229 11.8552 10.5967L9.6785 13.0514C9.6147 13.1236 9.52771 13.1642 9.43694 13.1642C9.34617 13.1642 9.25917 13.1236 9.19537 13.0514L7.01834 10.5967C6.95109 10.5229 6.91409 10.4212 6.91608 10.3159C6.91808 10.2105 6.95889 10.1108 7.02887 10.0402C8.41897 8.72628 10.4549 8.72628 11.845 10.0402C11.9149 10.1108 11.9557 10.2106 11.9576 10.316Z"
		fill="white" />
</svg>