<svg width="20" height="14" viewBox="0 0 20 14" fill="none" xmlns="http://www.w3.org/2000/svg">
	<path fill-rule="evenodd" clip-rule="evenodd"
		d="M19.865 2.03301C19.865 1.39996 19.3875 0.88678 18.7984 0.88678H17.7317C17.1426 0.88678 16.665 1.39996 16.665 2.03301V11.967C16.665 12.6 17.1426 13.1132 17.7317 13.1132H18.7984C19.3875 13.1132 19.865 12.6 19.865 11.967V2.03301ZM12.4309 3.33206H13.4976C14.0867 3.33206 14.5643 3.85756 14.5643 4.5058V11.9395C14.5643 12.5877 14.0867 13.1132 13.4976 13.1132H12.4309C11.8418 13.1132 11.3643 12.5877 11.3643 11.9395V4.5058C11.3643 3.85756 11.8418 3.33206 12.4309 3.33206ZM8.09915 5.98111H7.03249C6.44338 5.98111 5.96582 6.5133 5.96582 7.16979V11.9245C5.96582 12.581 6.44338 13.1132 7.03249 13.1132H8.09915C8.68826 13.1132 9.16582 12.581 9.16582 11.9245V7.16979C9.16582 6.5133 8.68826 5.98111 8.09915 5.98111ZM2.79837 8.4264H1.73171C1.1426 8.4264 0.665039 8.95099 0.665039 9.5981V11.9415C0.665039 12.5886 1.1426 13.1132 1.73171 13.1132H2.79837C3.38748 13.1132 3.86504 12.5886 3.86504 11.9415V9.5981C3.86504 8.95099 3.38748 8.4264 2.79837 8.4264Z"
		fill="white" />
</svg>