<?xml version="1.0" encoding="utf-8"?>
<svg viewBox="145.83 92.487 27.94 28.811" xmlns="http://www.w3.org/2000/svg">
  <g transform="matrix(1, 0, 0, 1, -418.637634, -136.496201)">
    <title>Futures</title>
    <path style="fill: rgba(233, 183, 53, 1);"
      d="M 570.372 228.983 L 592.408 228.983 L 592.408 254.761 C 592.408 255.426 592.165 256.034 591.764 256.502 C 591.237 257.272 590.351 257.777 589.348 257.777 L 567.498 257.777 C 565.883 257.777 564.573 256.467 564.573 254.852 L 564.573 246.625 C 564.573 245.01 565.883 243.7 567.498 243.7 L 570.372 243.7 L 570.372 228.983 Z" />
    <path
      d="M 564.468 243.73 L 570.468 243.73 L 570.468 254.79 L 570.462 254.79 C 570.462 254.793 570.462 254.797 570.462 254.8 C 570.462 256.454 569.122 257.794 567.468 257.794 C 565.814 257.794 564.474 256.454 564.474 254.8 C 564.474 254.797 564.474 254.793 564.474 254.79 L 564.468 254.79 L 564.468 243.73"
      style="stroke-miterlimit: 8; stroke-width: 2px; stroke-linecap: round; fill: rgb(95, 101, 115);" />
    <g>
      <g>
        <ellipse style="fill: rgb(95, 101, 115);" cx="581.261" cy="240.023" rx="7" ry="7" />
        <rect x="403.641" y="176.884" width="4" height="4" style="fill: rgba(233, 183, 53, 1);"
          transform="matrix(0.707107, 0.707107, -0.707107, 0.707107, 420.919647, -173.298721)" />
      </g>
      <rect x="574.336" y="249.705" width="14" height="2.84" style="fill: rgb(95, 101, 115);" />
    </g>
  </g>
</svg>
